<svg xmlns="http://www.w3.org/2000/svg" width="125" height="35" viewBox="0 0 125 35">
    <path fill-rule="evenodd" d="M9.903 9.124v4.043c-1.28-.692-2.302-.983-3.508-.983-1.133 0-1.827.364-1.827.983 0 .547.402.838 1.68 1.202 1.682.51 2.376.838 3.07 1.457.987.91 1.535 2.295 1.535 3.752 0 3.096-2.412 5.172-6.03 5.172-1.68 0-3.106-.328-4.604-1.02v-4.407c1.9 1.056 2.85 1.384 4.166 1.384 1.242 0 1.973-.4 1.973-1.093 0-.692-.365-.91-2.083-1.347C1.315 17.538 0 16.045 0 13.495c0-3.06 2.521-5.245 6.066-5.245 1.206 0 2.083.182 3.837.874zm24.465 14.71h-4.356v-8.729c0-.954-.07-1.343-.318-1.802-.354-.671-1.098-1.095-1.842-1.095a2.17 2.17 0 0 0-1.84 1.024c-.39.566-.39.636-.39 1.944v8.657h-4.32v-8.692c0-1.202-.036-1.414-.32-1.873-.389-.601-1.097-.99-1.805-.99-.744 0-1.452.424-1.841 1.025-.283.46-.319.671-.319 1.873v8.657h-4.355v-7.986c0-2.58.212-3.569 1.062-4.84 1.133-1.732 3.08-2.757 5.17-2.757 1.77 0 3.187.636 4.497 1.943 1.629-1.413 2.833-1.908 4.532-1.908 2.125 0 4.037 1.025 5.24 2.757.921 1.342 1.205 2.473 1.205 4.84v7.951zm18.088-.178h-4.5v-1.243c-1.5.994-2.744 1.42-4.17 1.42-4.061 0-7.61-3.62-7.61-7.774 0-4.295 3.659-7.809 8.122-7.809 2.56 0 4.975 1.171 6.512 3.16 1.207 1.561 1.646 3.017 1.646 5.572v6.674zm-8.14-10.823a3.612 3.612 0 0 0-3.617 3.631c0 2.05 1.644 3.703 3.654 3.703 1.936 0 3.58-1.654 3.58-3.631 0-2.013-1.644-3.703-3.617-3.703zm14.213 11h-4.264v-7.955c0-2.434.105-3.16.629-4.25C56.012 9.34 57.934 8.25 60.8 8.25c.105 0 .384 0 .699.036v4.105h-.524c-1.923.036-2.447.618-2.447 2.506v8.936zm13.824 0h-.835c-2.922 0-5.113-1.425-6.087-3.946-.383-.95-.418-1.462-.452-4.75v-2.704h-2.575V8.121h2.575V2.75h4.278v5.371h3.096v4.312h-3.096v3.142c-.104 3.325.452 4.056 3.096 4.056v4.202zm2.212 1.778h4.473c.44 2.075 1.76 3.24 3.593 3.24 2.127 0 3.337-1.638 3.337-4.514v-1.383c-1.797 1.056-2.603 1.31-3.997 1.31-4.29 0-7.81-3.603-7.81-7.97 0-4.44 3.63-8.044 8.177-8.044 2.603 0 5.06 1.238 6.563 3.349 1.1 1.492 1.54 3.02 1.54 5.277v6.88c0 3.238-.366 4.622-1.613 6.223A8.017 8.017 0 0 1 82.558 33c-3.043 0-5.903-1.71-7.15-4.258-.403-.838-.623-1.602-.843-3.13zm7.773-12.778c-2.046 0-3.654 1.618-3.654 3.667 0 2.049 1.608 3.667 3.617 3.667a3.604 3.604 0 0 0 3.618-3.595c0-2.121-1.571-3.739-3.581-3.739zM96.772 8.25v15.583H92.25V8.25h4.522zm-2.277-6.417a2.248 2.248 0 0 1 2.277 2.275c0 1.238-1.056 2.309-2.277 2.309-1.222 0-2.245-1.037-2.245-2.309 0-1.271.99-2.275 2.245-2.275zm10.088 22h-4.402v-11.22h-2.505V8.54h2.505V5.967c0-1.715.68-3.251 1.933-4.395C103.402.393 104.654 0 106.909 0h.716v4.002h-.465c-1.79 0-2.577.75-2.577 2.394V8.54h3.042v4.073h-3.042v11.22zm13.895 0h-.835c-2.922 0-5.113-1.425-6.087-3.946-.383-.95-.418-1.462-.452-4.75v-2.704h-2.575V8.121h2.575V2.75h4.278v5.371h3.096v4.312h-3.096v3.142c-.104 3.325.452 4.056 3.096 4.056v4.202z"/>
</svg>
